<svg width="30" height="30" viewBox="0 0 30 30" fill="none" xmlns="http://www.w3.org/2000/svg">
<path d="M3.00002 4.33329V25.6666C3.00002 26.924 3.00002 27.552 3.39069 27.9426C3.78135 28.3333 4.40935 28.3333 5.66669 28.3333H24.3334C25.5907 28.3333 26.2187 28.3333 26.6094 27.9426C27 27.552 27 26.924 27 25.6666V4.33329M13 9.66663V11.6666M13 11.6666V13.6666M13 11.6666H17M17 9.66663V11.6666M17 11.6666V13.6666M17.6667 28.3333V23C17.6667 22.2927 17.3857 21.6144 16.8856 21.1143C16.3855 20.6142 15.7073 20.3333 15 20.3333C14.2928 20.3333 13.6145 20.6142 13.1144 21.1143C12.6143 21.6144 12.3334 22.2927 12.3334 23V28.3333M1.66669 4.33329H9.66669C10.52 2.76929 12.5867 1.66663 15 1.66663C17.4134 1.66663 19.48 2.76929 20.3334 4.33329H28.3334M7.00002 9.66663H8.33335M7.00002 15H8.33335M7.00002 20.3333H8.33335M21.6667 9.66663H23M21.6667 15H23M21.6667 20.3333H23" stroke="#273B4A" stroke-width="1.5" stroke-linecap="round" stroke-linejoin="round"/>
</svg>